<?xml version="1.0" encoding="UTF-8"?>
<svg width="151px" height="151px" viewBox="0 0 151 151" xmlns="http://www.w3.org/2000/svg" xmlns:xlink="http://www.w3.org/1999/xlink" version="1.1">
 <!-- Generated by Pixelmator Pro 2.0.8 -->
 <g id="tel">
  <g id="group">
   <g id="group-1">
    <path id="Path" d="M100.246 55.739 C96.44 55.739 92.922 54.58 90.035 52.323 81.793 45.881 81.552 32.356 89.507 22.175 97.461 11.994 110.644 8.95 118.892 15.391 123.01 18.609 125.273 23.61 125.267 29.469 125.261 35.022 123.184 40.725 119.42 45.539 115.662 50.354 110.626 53.752 105.235 55.102 103.536 55.529 101.861 55.739 100.246 55.739 Z M108.615 18.549 C103.89 18.549 98.547 21.304 94.699 26.227 88.978 33.551 88.708 42.928 94.093 47.13 96.572 49.069 99.964 49.633 103.632 48.709 107.6 47.712 111.364 45.143 114.228 41.481 117.091 37.813 118.67 33.545 118.676 29.451 118.682 25.663 117.319 22.517 114.834 20.578 113.069 19.203 110.914 18.549 108.615 18.549 Z" fill="#4f629a" fill-opacity="1" stroke="none"/>
   </g>
   <g id="group-2">
    <g id="group-3">
     <g id="group-4">
      <path id="Path-1" d="M107.93 26.203 C107.93 27.589 106.807 28.712 105.421 28.712 104.035 28.712 102.912 27.589 102.912 26.203 102.912 24.817 104.035 23.694 105.421 23.694 106.807 23.694 107.93 24.817 107.93 26.203 Z" fill="#4f629a" fill-opacity="1" stroke="none"/>
     </g>
     <g id="group-5">
      <path id="Path-2" d="M114.168 31.078 C114.168 32.464 113.044 33.587 111.658 33.587 110.272 33.587 109.149 32.464 109.149 31.078 109.149 29.691 110.272 28.568 111.658 28.568 113.044 28.568 114.168 29.691 114.168 31.078 Z" fill="#4f629a" fill-opacity="1" stroke="none"/>
     </g>
    </g>
    <g id="group-6">
     <g id="group-7">
      <path id="Path-3" d="M99.778 36.637 C99.778 38.023 98.655 39.146 97.269 39.146 95.883 39.146 94.759 38.023 94.759 36.637 94.759 35.25 95.883 34.127 97.269 34.127 98.655 34.127 99.778 35.25 99.778 36.637 Z" fill="#4f629a" fill-opacity="1" stroke="none"/>
     </g>
     <g id="group-8">
      <path id="Path-4" d="M106.015 41.505 C106.015 42.891 104.892 44.014 103.506 44.014 102.12 44.014 100.997 42.891 100.997 41.505 100.997 40.119 102.12 38.996 103.506 38.996 104.892 38.996 106.015 40.119 106.015 41.505 Z" fill="#4f629a" fill-opacity="1" stroke="none"/>
     </g>
    </g>
    <g id="group-9">
     <g id="group-10">
      <path id="Path-5" d="M106.976 33.857 C106.976 35.243 105.853 36.366 104.466 36.366 103.08 36.366 101.957 35.243 101.957 33.857 101.957 32.471 103.08 31.348 104.466 31.348 105.853 31.348 106.976 32.471 106.976 33.857 Z" fill="#4f629a" fill-opacity="1" stroke="none"/>
     </g>
     <g id="group-11">
      <path id="Path-6" d="M100.733 28.983 C100.733 30.369 99.609 31.492 98.223 31.492 96.837 31.492 95.714 30.369 95.714 28.983 95.714 27.596 96.837 26.473 98.223 26.473 99.609 26.473 100.733 27.596 100.733 28.983 Z" fill="#4f629a" fill-opacity="1" stroke="none"/>
     </g>
     <g id="group-12">
      <path id="Path-7" d="M113.207 38.732 C113.207 40.118 112.084 41.241 110.698 41.241 109.312 41.241 108.188 40.118 108.188 38.732 108.188 37.346 109.312 36.222 110.698 36.222 112.084 36.222 113.207 37.346 113.207 38.732 Z" fill="#4f629a" fill-opacity="1" stroke="none"/>
     </g>
    </g>
   </g>
   <g id="group-13">
    <path id="Path-8" d="M29.505 125.189 C23.658 125.189 18.675 122.926 15.464 118.814 9.022 110.572 12.066 97.383 22.247 89.434 32.429 81.48 45.954 81.714 52.401 89.963 58.842 98.205 55.799 111.394 45.617 119.342 40.803 123.106 35.094 125.177 29.547 125.189 29.529 125.189 29.517 125.189 29.505 125.189 Z M38.366 90.149 C34.464 90.149 30.105 91.65 26.299 94.621 18.975 100.342 16.448 109.377 20.65 114.762 22.583 117.235 25.729 118.604 29.505 118.604 L29.529 118.604 C33.623 118.598 37.891 117.013 41.559 114.155 48.883 108.434 51.411 99.4 47.208 94.015 45.185 91.433 41.974 90.149 38.366 90.149 Z" fill="#4f629a" fill-opacity="1" stroke="none"/>
   </g>
   <g id="group-14">
    <g id="group-15">
     <g id="group-16">
      <path id="Path-9" d="M39.218 97.196 C39.218 98.583 38.095 99.706 36.709 99.706 35.323 99.706 34.199 98.583 34.199 97.196 34.199 95.81 35.323 94.687 36.709 94.687 38.095 94.687 39.218 95.81 39.218 97.196 Z" fill="#4f629a" fill-opacity="1" stroke="none"/>
     </g>
     <g id="group-17">
      <path id="Path-10" d="M44.093 103.434 C44.093 104.82 42.969 105.943 41.583 105.943 40.197 105.943 39.074 104.82 39.074 103.434 39.074 102.048 40.197 100.924 41.583 100.924 42.969 100.924 44.093 102.048 44.093 103.434 Z" fill="#4f629a" fill-opacity="1" stroke="none"/>
     </g>
    </g>
    <g id="group-18">
     <g id="group-19">
      <path id="Path-11" d="M28.785 105.349 C28.785 106.735 27.661 107.858 26.275 107.858 24.889 107.858 23.766 106.735 23.766 105.349 23.766 103.963 24.889 102.839 26.275 102.839 27.661 102.839 28.785 103.963 28.785 105.349 Z" fill="#4f629a" fill-opacity="1" stroke="none"/>
     </g>
     <g id="group-20">
      <path id="Path-12" d="M33.659 111.58 C33.659 112.966 32.536 114.089 31.15 114.089 29.764 114.089 28.641 112.966 28.641 111.58 28.641 110.194 29.764 109.071 31.15 109.071 32.536 109.071 33.659 110.194 33.659 111.58 Z" fill="#4f629a" fill-opacity="1" stroke="none"/>
     </g>
    </g>
    <g id="group-21">
     <g id="group-22">
      <path id="Path-13" d="M36.439 104.388 C36.439 105.774 35.315 106.898 33.929 106.898 32.543 106.898 31.42 105.774 31.42 104.388 31.42 103.002 32.543 101.879 33.929 101.879 35.315 101.879 36.439 103.002 36.439 104.388 Z" fill="#4f629a" fill-opacity="1" stroke="none"/>
     </g>
     <g id="group-23">
      <path id="Path-14" d="M31.564 98.151 C31.564 99.537 30.441 100.66 29.055 100.66 27.669 100.66 26.545 99.537 26.545 98.151 26.545 96.765 27.669 95.642 29.055 95.642 30.441 95.642 31.564 96.765 31.564 98.151 Z" fill="#4f629a" fill-opacity="1" stroke="none"/>
     </g>
     <g id="group-24">
      <path id="Path-15" d="M41.313 110.626 C41.313 112.012 40.19 113.135 38.804 113.135 37.418 113.135 36.295 112.012 36.295 110.626 36.295 109.239 37.418 108.116 38.804 108.116 40.19 108.116 41.313 109.239 41.313 110.626 Z" fill="#4f629a" fill-opacity="1" stroke="none"/>
     </g>
    </g>
   </g>
   <g id="group-25">
    <path id="Path-16" d="M145.63 35.04 C139.693 19.462 128.995 10.859 125.742 8.506 125.454 8.254 125.153 8.001 124.847 7.761 113.627 -1.009 95.396 3.565 84.134 17.979 72.872 32.392 72.842 51.188 84.068 59.953 86.901 62.168 90.185 63.531 93.685 64.095 97.185 64.659 89.182 73.052 81.114 81.12 73.046 89.182 64.173 93.613 64.173 93.613 63.603 90.113 62.24 86.829 60.031 83.996 51.26 72.776 32.471 72.8 18.057 84.062 3.637 95.329 -0.937 113.555 7.828 124.781 7.828 124.781 16.496 138.576 35.028 145.642 53.554 152.708 91.175 126.192 108.549 108.819 L108.807 108.56 C126.186 91.181 152.696 53.565 145.63 35.04 Z" fill="#b1b7fc" fill-opacity="1" stroke="none"/>
   </g>
   <g id="group-26">
    <path id="Path-17" d="M30.754 120.273 C26.431 120.273 22.445 118.628 19.888 115.35 16.034 110.421 16.424 103.074 20.848 97.064 21.929 95.6 23.988 95.287 25.453 96.368 26.918 97.449 27.23 99.508 26.149 100.972 23.496 104.574 23.064 108.723 25.069 111.298 27.74 114.72 34.055 114.45 38.846 110.704 40.281 109.587 42.352 109.839 43.468 111.274 44.591 112.709 44.333 114.774 42.898 115.896 39.176 118.826 34.818 120.273 30.754 120.273 Z" fill="#8ea1ec" fill-opacity="1" stroke="none"/>
   </g>
   <g id="group-27">
    <path id="Path-18" d="M101.387 50.822 C98.427 50.822 95.612 49.94 93.307 48.139 88.396 44.303 86.919 37.069 89.645 30.153 90.311 28.46 92.226 27.632 93.913 28.292 95.606 28.959 96.44 30.868 95.774 32.566 94.129 36.745 94.765 40.917 97.365 42.946 100.222 45.179 104.899 44.489 108.729 41.271 110.121 40.1 112.199 40.28 113.369 41.673 114.54 43.066 114.36 45.143 112.967 46.314 109.419 49.297 105.277 50.822 101.387 50.822 Z" fill="#8ea1ec" fill-opacity="1" stroke="none"/>
   </g>
   <g id="group-28">
    <path id="Path-19" d="M95.954 30.381 C95.27 30.381 94.585 30.159 94.003 29.709 92.622 28.628 92.376 26.635 93.457 25.261 99.232 17.865 108.873 15.704 114.942 20.452 116.323 21.533 116.569 23.526 115.488 24.9 114.408 26.275 112.415 26.527 111.04 25.447 107.78 22.901 102.029 24.606 98.457 29.163 97.827 29.967 96.89 30.381 95.954 30.381 Z" fill="#d2ddfd" fill-opacity="1" stroke="none"/>
   </g>
   <g id="group-29">
    <path id="Path-20" d="M46.476 102.791 C45.023 102.791 43.744 101.735 43.51 100.252 43.36 99.298 43 98.451 42.442 97.737 40.983 95.864 38.252 95.107 35.136 95.72 33.509 96.032 31.93 94.981 31.606 93.348 31.288 91.722 32.35 90.143 33.977 89.819 39.35 88.768 44.291 90.335 47.178 94.033 48.373 95.558 49.135 97.335 49.447 99.31 49.706 100.948 48.589 102.485 46.95 102.749 46.788 102.779 46.626 102.791 46.476 102.791 Z" fill="#d2ddfd" fill-opacity="1" stroke="none"/>
   </g>
   <g id="group-30">
    <path id="Path-21" d="M56.531 86.151 C56.531 87.961 55.063 89.428 53.254 89.428 51.444 89.428 49.976 87.961 49.976 86.151 49.976 84.341 51.444 82.873 53.254 82.873 55.063 82.873 56.531 84.341 56.531 86.151 Z" fill="#d2ddfd" fill-opacity="1" stroke="none"/>
   </g>
   <g id="group-31">
    <path id="Path-22" d="M21.293 91.469 C20.368 91.469 19.456 91.061 18.843 90.275 17.787 88.924 18.027 86.973 19.378 85.917 26.449 80.394 34.914 77.578 42.604 78.196 44.315 78.335 45.587 79.829 45.455 81.54 45.317 83.251 43.829 84.512 42.112 84.392 35.958 83.893 29.061 86.241 23.202 90.815 22.631 91.259 21.953 91.469 21.293 91.469 Z" fill="#d2ddfd" fill-opacity="1" stroke="none"/>
   </g>
   <g id="group-32">
    <path id="Path-23" d="M90.137 22.259 C89.315 22.259 88.492 21.947 87.862 21.316 86.607 20.062 86.607 18.027 87.862 16.766 99.352 5.276 115.939 3.163 124.841 12.066 126.096 13.32 126.096 15.355 124.841 16.616 123.587 17.871 121.551 17.871 120.291 16.616 113.903 10.229 101.393 12.336 92.412 21.316 91.782 21.947 90.953 22.259 90.137 22.259 Z" fill="#d2ddfd" fill-opacity="1" stroke="none"/>
   </g>
   <g id="group-33">
    <path id="Path-24" d="M81.366 37.663 C81.156 37.663 80.934 37.639 80.718 37.591 79.061 37.237 78.005 35.604 78.359 33.941 78.989 31.006 80.082 28.094 81.612 25.291 82.423 23.802 84.29 23.256 85.785 24.066 87.273 24.882 87.82 26.743 87.009 28.238 85.761 30.519 84.872 32.867 84.374 35.226 84.062 36.679 82.783 37.663 81.366 37.663 Z" fill="#d2ddfd" fill-opacity="1" stroke="none"/>
   </g>
   <g id="group-34">
    <path id="Path-25" d="M20.422 137.364 C20.422 137.364 35.274 138.246 41.841 134.89 47.617 131.937 50.648 135.803 51.621 136.775 52.593 137.748 57.96 143.361 57.96 143.361 57.96 143.361 46.752 147.551 39.878 146.711 32.999 145.882 20.422 137.364 20.422 137.364 Z" fill="#8ea1ec" fill-opacity="1" stroke="none"/>
   </g>
   <g id="group-35">
    <path id="Path-26" d="M129.019 75.231 C128.341 75.231 127.657 75.021 127.068 74.595 125.604 73.514 125.291 71.455 126.366 69.99 134.122 59.449 135.299 51.164 135.311 51.08 135.551 49.285 137.19 48.007 138.997 48.241 140.792 48.469 142.07 50.102 141.848 51.903 141.8 52.305 140.54 61.85 131.673 73.892 131.03 74.769 130.028 75.231 129.019 75.231 Z" fill="#d2ddfd" fill-opacity="1" stroke="none"/>
   </g>
   <g id="group-36">
    <path id="Path-27" d="M126.372 51.32 C118.508 67.481 105.199 84.596 95.024 94.771 L94.765 95.029 C84.614 105.181 67.547 118.454 51.417 126.33 L63.117 110.505 66.256 93.931 81.312 82.831 93.307 66.88 106.454 64.509 Z" fill="#8ea1ec" fill-opacity="1" stroke="none"/>
   </g>
   <g id="group-37">
    <path id="Path-28" d="M97.533 67.667 C91.878 67.667 86.487 66.016 82.045 62.546 80.61 61.43 80.358 59.359 81.474 57.924 82.591 56.489 84.662 56.231 86.097 57.353 95.87 64.989 112.06 60.661 122.188 47.7 123.304 46.266 125.376 46.013 126.81 47.13 128.245 48.247 128.497 50.318 127.381 51.753 119.36 62.03 107.984 67.667 97.533 67.667 Z" fill="#8ea1ec" fill-opacity="1" stroke="none"/>
   </g>
   <g id="group-38">
    <path id="Path-29" d="M49.808 128.005 C48.829 128.005 47.857 127.572 47.214 126.738 46.092 125.303 46.35 123.238 47.785 122.116 60.745 111.994 65.074 95.798 57.438 86.025 56.315 84.59 56.573 82.525 58.008 81.402 59.443 80.286 61.514 80.538 62.63 81.972 72.506 94.609 67.667 114.948 51.849 127.308 51.236 127.777 50.522 128.005 49.808 128.005 Z" fill="#8ea1ec" fill-opacity="1" stroke="none"/>
   </g>
   <g id="group-39">
    <path id="Path-30" d="M100.246 55.739 C96.44 55.739 92.922 54.58 90.035 52.323 81.793 45.881 81.552 32.356 89.507 22.175 97.461 11.994 110.644 8.95 118.892 15.391 123.01 18.609 125.273 23.61 125.267 29.469 125.261 35.022 123.184 40.725 119.42 45.539 115.662 50.354 110.626 53.752 105.235 55.102 103.536 55.529 101.861 55.739 100.246 55.739 Z M108.615 18.549 C103.89 18.549 98.547 21.304 94.699 26.227 88.978 33.551 88.708 42.928 94.093 47.13 96.572 49.069 99.964 49.633 103.632 48.709 107.6 47.712 111.364 45.143 114.228 41.481 117.091 37.813 118.67 33.545 118.676 29.451 118.682 25.663 117.319 22.517 114.834 20.578 113.069 19.203 110.914 18.549 108.615 18.549 Z" fill="#4f629a" fill-opacity="1" stroke="none"/>
   </g>
   <g id="group-40">
    <path id="Path-31" d="M97.623 67.727 C91.896 67.727 86.487 66.016 82.045 62.546 69.408 52.671 69.186 31.774 81.54 15.95 87.436 8.404 95.312 3.085 103.704 0.978 112.409 -1.201 120.633 0.281 126.876 5.162 128.311 6.279 128.563 8.35 127.447 9.784 126.33 11.219 124.259 11.471 122.824 10.355 118.214 6.753 111.994 5.69 105.307 7.371 98.319 9.124 91.728 13.608 86.733 20.008 76.612 32.969 76.33 49.723 86.103 57.359 93.763 63.339 105.601 62.138 115.566 54.358 117.001 53.241 119.072 53.493 120.189 54.928 121.305 56.363 121.053 58.428 119.618 59.551 112.685 64.965 104.899 67.727 97.623 67.727 Z" fill="#4f629a" fill-opacity="1" stroke="none"/>
   </g>
   <g id="group-41">
    <g id="group-42">
     <g id="group-43">
      <path id="Path-32" d="M107.93 26.203 C107.93 27.589 106.807 28.712 105.421 28.712 104.035 28.712 102.912 27.589 102.912 26.203 102.912 24.817 104.035 23.694 105.421 23.694 106.807 23.694 107.93 24.817 107.93 26.203 Z" fill="#4f629a" fill-opacity="1" stroke="none"/>
     </g>
     <g id="group-44">
      <path id="Path-33" d="M114.168 31.078 C114.168 32.464 113.044 33.587 111.658 33.587 110.272 33.587 109.149 32.464 109.149 31.078 109.149 29.691 110.272 28.568 111.658 28.568 113.044 28.568 114.168 29.691 114.168 31.078 Z" fill="#4f629a" fill-opacity="1" stroke="none"/>
     </g>
    </g>
    <g id="group-45">
     <g id="group-46">
      <path id="Path-34" d="M99.778 36.637 C99.778 38.023 98.655 39.146 97.269 39.146 95.883 39.146 94.759 38.023 94.759 36.637 94.759 35.25 95.883 34.127 97.269 34.127 98.655 34.127 99.778 35.25 99.778 36.637 Z" fill="#4f629a" fill-opacity="1" stroke="none"/>
     </g>
     <g id="group-47">
      <path id="Path-35" d="M106.015 41.505 C106.015 42.891 104.892 44.014 103.506 44.014 102.12 44.014 100.997 42.891 100.997 41.505 100.997 40.119 102.12 38.996 103.506 38.996 104.892 38.996 106.015 40.119 106.015 41.505 Z" fill="#4f629a" fill-opacity="1" stroke="none"/>
     </g>
    </g>
    <g id="group-48">
     <g id="group-49">
      <path id="Path-36" d="M106.976 33.857 C106.976 35.243 105.853 36.366 104.466 36.366 103.08 36.366 101.957 35.243 101.957 33.857 101.957 32.471 103.08 31.348 104.466 31.348 105.853 31.348 106.976 32.471 106.976 33.857 Z" fill="#4f629a" fill-opacity="1" stroke="none"/>
     </g>
     <g id="group-50">
      <path id="Path-37" d="M100.733 28.983 C100.733 30.369 99.609 31.492 98.223 31.492 96.837 31.492 95.714 30.369 95.714 28.983 95.714 27.596 96.837 26.473 98.223 26.473 99.609 26.473 100.733 27.596 100.733 28.983 Z" fill="#4f629a" fill-opacity="1" stroke="none"/>
     </g>
     <g id="group-51">
      <path id="Path-38" d="M113.207 38.732 C113.207 40.118 112.084 41.241 110.698 41.241 109.312 41.241 108.188 40.118 108.188 38.732 108.188 37.346 109.312 36.222 110.698 36.222 112.084 36.222 113.207 37.346 113.207 38.732 Z" fill="#4f629a" fill-opacity="1" stroke="none"/>
     </g>
    </g>
   </g>
   <g id="group-52">
    <path id="Path-39" d="M29.505 125.189 C23.658 125.189 18.675 122.926 15.464 118.814 9.022 110.572 12.066 97.383 22.247 89.434 32.429 81.48 45.954 81.714 52.401 89.963 58.842 98.205 55.799 111.394 45.617 119.342 40.803 123.106 35.094 125.177 29.547 125.189 29.529 125.189 29.517 125.189 29.505 125.189 Z M38.366 90.149 C34.464 90.149 30.105 91.65 26.299 94.621 18.975 100.342 16.448 109.377 20.65 114.762 22.583 117.235 25.729 118.604 29.505 118.604 L29.529 118.604 C33.623 118.598 37.891 117.013 41.559 114.155 48.883 108.434 51.411 99.4 47.208 94.015 45.185 91.433 41.974 90.149 38.366 90.149 Z" fill="#4f629a" fill-opacity="1" stroke="none"/>
   </g>
   <g id="group-53">
    <path id="Path-40" d="M7.834 128.071 C6.855 128.071 5.883 127.639 5.24 126.804 0.36 120.555 -1.129 112.33 1.056 103.632 3.163 95.233 8.482 87.363 16.022 81.468 31.846 69.108 52.749 69.33 62.618 81.972 67.625 88.378 69.06 97.16 66.557 106.069 66.064 107.816 64.245 108.837 62.498 108.35 60.745 107.858 59.725 106.039 60.217 104.292 62.174 97.323 61.184 90.839 57.432 86.031 49.796 76.257 33.041 76.54 20.08 86.667 13.687 91.662 9.196 98.265 7.443 105.241 5.768 111.922 6.825 118.148 10.427 122.758 11.55 124.193 11.291 126.258 9.857 127.38 9.262 127.849 8.548 128.071 7.834 128.071 Z" fill="#4f629a" fill-opacity="1" stroke="none"/>
   </g>
   <g id="group-54">
    <g id="group-55">
     <g id="group-56">
      <path id="Path-41" d="M39.218 97.196 C39.218 98.583 38.095 99.706 36.709 99.706 35.323 99.706 34.199 98.583 34.199 97.196 34.199 95.81 35.323 94.687 36.709 94.687 38.095 94.687 39.218 95.81 39.218 97.196 Z" fill="#4f629a" fill-opacity="1" stroke="none"/>
     </g>
     <g id="group-57">
      <path id="Path-42" d="M44.093 103.434 C44.093 104.82 42.969 105.943 41.583 105.943 40.197 105.943 39.074 104.82 39.074 103.434 39.074 102.048 40.197 100.924 41.583 100.924 42.969 100.924 44.093 102.048 44.093 103.434 Z" fill="#4f629a" fill-opacity="1" stroke="none"/>
     </g>
    </g>
    <g id="group-58">
     <g id="group-59">
      <path id="Path-43" d="M28.785 105.349 C28.785 106.735 27.661 107.858 26.275 107.858 24.889 107.858 23.766 106.735 23.766 105.349 23.766 103.963 24.889 102.839 26.275 102.839 27.661 102.839 28.785 103.963 28.785 105.349 Z" fill="#4f629a" fill-opacity="1" stroke="none"/>
     </g>
     <g id="group-60">
      <path id="Path-44" d="M33.659 111.58 C33.659 112.966 32.536 114.089 31.15 114.089 29.764 114.089 28.641 112.966 28.641 111.58 28.641 110.194 29.764 109.071 31.15 109.071 32.536 109.071 33.659 110.194 33.659 111.58 Z" fill="#4f629a" fill-opacity="1" stroke="none"/>
     </g>
    </g>
    <g id="group-61">
     <g id="group-62">
      <path id="Path-45" d="M36.439 104.388 C36.439 105.774 35.315 106.898 33.929 106.898 32.543 106.898 31.42 105.774 31.42 104.388 31.42 103.002 32.543 101.879 33.929 101.879 35.315 101.879 36.439 103.002 36.439 104.388 Z" fill="#4f629a" fill-opacity="1" stroke="none"/>
     </g>
     <g id="group-63">
      <path id="Path-46" d="M31.564 98.151 C31.564 99.537 30.441 100.66 29.055 100.66 27.669 100.66 26.545 99.537 26.545 98.151 26.545 96.765 27.669 95.642 29.055 95.642 30.441 95.642 31.564 96.765 31.564 98.151 Z" fill="#4f629a" fill-opacity="1" stroke="none"/>
     </g>
     <g id="group-64">
      <path id="Path-47" d="M41.313 110.626 C41.313 112.012 40.19 113.135 38.804 113.135 37.418 113.135 36.295 112.012 36.295 110.626 36.295 109.239 37.418 108.116 38.804 108.116 40.19 108.116 41.313 109.239 41.313 110.626 Z" fill="#4f629a" fill-opacity="1" stroke="none"/>
     </g>
    </g>
   </g>
   <g id="group-65">
    <path id="Path-48" d="M41.878 150.078 C38.996 150.078 36.307 149.652 33.857 148.722 14.521 141.35 5.42 127.134 5.042 126.534 4.076 124.991 4.538 122.962 6.075 121.996 7.617 121.029 9.647 121.491 10.613 123.028 10.691 123.154 19.011 136.013 36.199 142.568 52.035 148.602 87.646 125.069 106.219 106.495 L106.478 106.237 C125.051 87.663 148.584 52.041 142.557 36.216 135.959 18.903 123.202 10.619 123.076 10.541 121.539 9.562 121.095 7.527 122.068 5.99 123.046 4.454 125.081 4.009 126.618 4.982 127.218 5.366 141.344 14.539 148.716 33.869 156.862 55.24 126.324 95.714 111.142 110.896 L110.884 111.154 C97.437 124.589 64.167 150.072 41.878 150.078 Z" fill="#4f629a" fill-opacity="1" stroke="none"/>
   </g>
   <g id="group-66">
    <path id="Path-49" d="M64.173 96.908 C62.967 96.908 61.802 96.236 61.22 95.083 60.409 93.456 61.07 91.481 62.69 90.665 62.775 90.623 71.215 86.349 78.779 78.785 86.343 71.221 90.701 62.696 90.737 62.612 91.56 60.985 93.535 60.337 95.162 61.159 96.788 61.976 97.437 63.957 96.62 65.578 96.422 65.962 91.782 75.099 83.431 83.449 75.081 91.8 66.01 96.374 65.626 96.56 65.17 96.8 64.666 96.908 64.173 96.908 Z" fill="#4f629a" fill-opacity="1" stroke="none"/>
   </g>
   <g id="group-67">
    <path id="Path-50" d="M62.961 113.669 C62.961 115.476 61.496 116.941 59.689 116.941 57.882 116.941 56.417 115.476 56.417 113.669 56.417 111.862 57.882 110.397 59.689 110.397 61.496 110.397 62.961 111.862 62.961 113.669 Z" fill="#4f629a" fill-opacity="1" stroke="none"/>
   </g>
   <g id="group-68">
    <path id="Path-51" d="M143.409 39.752 C143.409 41.562 141.941 43.03 140.131 43.03 138.321 43.03 136.854 41.562 136.854 39.752 136.854 37.942 138.321 36.474 140.131 36.474 141.941 36.474 143.409 37.942 143.409 39.752 Z" fill="#d2ddfd" fill-opacity="1" stroke="none"/>
   </g>
   <g id="group-69">
    <path id="Path-52" d="M62.636 81.996 C62.636 81.996 65.668 85.394 69.282 85.148 71.707 84.98 74.415 82.765 74.415 82.765 74.415 82.765 77.89 86.079 77.89 86.151 77.89 86.223 65.998 92.622 65.998 92.622 Z" fill="#4f629a" fill-opacity="1" stroke="none"/>
   </g>
   <g id="group-70">
    <path id="Path-53" d="M83.071 63.291 C83.071 63.291 85.917 65.326 86.349 67.385 86.679 68.982 86.265 69.9 85.695 70.638 L87.466 72.301 90.779 65.86 83.581 62.462 Z" fill="#4f629a" fill-opacity="1" stroke="none"/>
   </g>
   <g id="group-71">
    <path id="Path-54" d="M67.745 98.721 C67.745 98.721 67.649 97.028 68.424 95.93 69.246 94.729 69.486 94.513 70.387 93.817 L69.732 92.508 66.028 95.137 Z" fill="#4f629a" fill-opacity="1" stroke="none"/>
   </g>
   <g id="group-72">
    <path id="Path-55" d="M93.799 70.44 C93.799 70.44 94.897 68.693 96.02 68.243 97.125 67.799 97.467 67.727 98.361 67.691 L98.361 66.304 94.387 66.466 Z" fill="#4f629a" fill-opacity="1" stroke="none"/>
   </g>
  </g>
 </g>
</svg>
