<?xml version="1.0" encoding="UTF-8"?>
<svg width="150px" height="144px" viewBox="0 0 150 144" xmlns="http://www.w3.org/2000/svg" xmlns:xlink="http://www.w3.org/1999/xlink" version="1.1">
 <!-- Generated by Pixelmator Pro 2.0.8 -->
 <g id="bubble">
  <g id="group">
   <g id="group-1">
    <path id="Path" d="M121.752 109.814 L120.396 110.432 C121.926 131.276 128.118 140.096 128.118 140.096 111.21 139.244 101.136 128.198 96.474 121.328 L94.092 122.408 C88.014 123.83 81.606 124.598 74.988 124.598 35.664 124.598 3.798 97.682 3.798 64.466 3.798 31.262 35.67 4.34 74.988 4.34 114.306 4.34 146.172 31.256 146.172 64.466 146.184 82.556 136.728 98.786 121.752 109.814 Z" fill="#a2d99d" fill-opacity="1" stroke="none"/>
   </g>
   <g id="group-2">
    <path id="Path-1" d="M5.748 78.47 C5.748 78.47 6.27 68.528 13.92 68.414 22.902 68.27 43.038 91.1 72.144 90.482 101.25 89.864 127.896 66.62 136.992 66.62 146.088 66.62 145.89 75.05 143.46 81.026 141.978 84.662 136.794 100.022 120.486 111.482 118.788 112.67 128.4 137.258 123.234 139.538 118.542 141.608 99.09 121.406 96.906 121.94 90.072 123.614 82.254 124.598 73.314 124.598 18.042 124.592 5.748 78.47 5.748 78.47 Z" fill="#6da165" fill-opacity="1" stroke="none"/>
   </g>
   <g id="group-3">
    <path id="Path-2" d="M75 128.402 C33.648 128.402 0 99.716 0 64.466 0 29.216 33.642 0.53 75 0.53 116.358 0.53 150 29.216 150 64.466 150 83.072 140.526 100.718 124.014 112.874 122.322 114.122 119.934 113.756 118.686 112.064 117.438 110.372 117.804 107.984 119.496 106.736 134.04 96.032 142.386 80.618 142.386 64.46 142.386 33.404 112.158 8.138 75 8.138 37.842 8.138 7.614 33.404 7.614 64.46 7.614 95.516 37.842 120.782 75 120.782 81.192 120.782 87.33 120.08 93.234 118.694 95.274 118.214 97.332 119.486 97.812 121.532 98.292 123.578 97.02 125.63 94.974 126.11 88.5 127.628 81.78 128.402 75 128.402 Z" fill="#527c3d" fill-opacity="1" stroke="none"/>
   </g>
   <g id="group-4">
    <path id="Path-3" d="M27.804 39.512 C26.97 39.512 26.136 39.242 25.434 38.678 23.784 37.37 23.514 34.97 24.828 33.326 29.328 27.674 36.342 22.424 43.578 19.292 45.51 18.458 47.748 19.346 48.588 21.272 49.422 23.204 48.534 25.442 46.608 26.282 40.464 28.946 34.542 33.356 30.78 38.072 30.03 39.02 28.926 39.512 27.804 39.512 Z" fill="#e7ffdd" fill-opacity="1" stroke="none"/>
   </g>
   <g id="group-5">
    <path id="Path-4" d="M128.124 143.894 C128.064 143.894 127.998 143.894 127.932 143.888 101.214 142.55 90.294 118.442 89.844 117.416 88.998 115.49 89.868 113.246 91.794 112.394 93.72 111.548 95.964 112.418 96.816 114.338 97.164 115.112 104.496 131.066 121.614 135.302 119.262 129.128 116.52 118.664 116.274 103.1 116.244 100.994 117.924 99.266 120.024 99.23 122.094 99.254 123.858 100.88 123.894 102.98 124.272 127.37 131.19 137.81 131.262 137.912 132.072 139.106 132.15 140.672 131.442 141.932 130.758 143.144 129.492 143.894 128.124 143.894 Z" fill="#527c3d" fill-opacity="1" stroke="none"/>
   </g>
   <g id="group-6">
    <path id="Path-5" d="M112.23 112.286 C113.418 115.706 115.512 123.932 113.136 125.744 111.168 127.238 105.528 123.848 101.424 118.526 96.324 111.92 97.758 106.586 100.746 104.87 103.722 103.148 109.47 104.366 112.23 112.286 Z" fill="#a2d99d" fill-opacity="1" stroke="none"/>
   </g>
   <g id="group-7">
    <path id="Path-6" d="M59.034 18.368 C59.034 20.459 57.339 22.154 55.248 22.154 53.157 22.154 51.462 20.459 51.462 18.368 51.462 16.277 53.157 14.582 55.248 14.582 57.339 14.582 59.034 16.277 59.034 18.368 Z" fill="#e7ffdd" fill-opacity="1" stroke="none"/>
   </g>
   <g id="group-8"/>
   <g id="group-9">
    <g id="group-10">
     <path id="Path-7" d="M112.86 58.118 C112.86 60.209 111.165 61.904 109.074 61.904 106.983 61.904 105.288 60.209 105.288 58.118 105.288 56.027 106.983 54.332 109.074 54.332 111.165 54.332 112.86 56.027 112.86 58.118 Z" fill="#527c3d" fill-opacity="1" stroke="none"/>
    </g>
    <g id="group-11">
     <path id="Path-8" d="M66.918 68.96 C66.918 71.051 65.223 72.746 63.132 72.746 61.041 72.746 59.346 71.051 59.346 68.96 59.346 66.869 61.041 65.174 63.132 65.174 65.223 65.174 66.918 66.869 66.918 68.96 Z" fill="#527c3d" fill-opacity="1" stroke="none"/>
    </g>
    <g id="group-12">
     <path id="Path-9" d="M98.034 61.922 L36.51 61.922 C34.404 61.922 32.7 60.218 32.7 58.112 32.7 56.006 34.404 54.302 36.51 54.302 L98.04 54.302 C100.146 54.302 101.85 56.006 101.85 58.112 101.844 60.218 100.134 61.922 98.034 61.922 Z" fill="#527c3d" fill-opacity="1" stroke="none"/>
    </g>
    <g id="group-13">
     <path id="Path-10" d="M108.78 72.77 L74.796 72.77 C72.69 72.77 70.986 71.066 70.986 68.96 70.986 66.854 72.69 65.15 74.796 65.15 L108.78 65.15 C110.886 65.15 112.59 66.854 112.59 68.96 112.59 71.066 110.886 72.77 108.78 72.77 Z" fill="#527c3d" fill-opacity="1" stroke="none"/>
    </g>
    <g id="group-14">
     <path id="Path-11" d="M51.942 72.77 L36.51 72.77 C34.404 72.77 32.7 71.066 32.7 68.96 32.7 66.854 34.404 65.15 36.51 65.15 L51.942 65.15 C54.048 65.15 55.752 66.854 55.752 68.96 55.752 71.066 54.042 72.77 51.942 72.77 Z" fill="#527c3d" fill-opacity="1" stroke="none"/>
    </g>
   </g>
   <g id="group-15">
    <path id="Path-12" d="M89.628 114.812 C89.628 114.812 87.87 120.77 78.252 120.722 L93.336 123.554 93.882 117.938 C93.876 117.938 89.718 114.554 89.628 114.812 Z" fill="#527c3d" fill-opacity="1" stroke="none"/>
   </g>
   <g id="group-16">
    <path id="Path-13" d="M122.916 100.502 C122.916 100.502 124.812 102.47 126.378 100.874 L127.134 103.886 123.318 104.864 Z" fill="#527c3d" fill-opacity="1" stroke="none"/>
   </g>
   <g id="group-17">
    <path id="Path-14" d="M94.32 126.26 C94.32 126.26 94.728 126.182 95.13 126.314 95.334 126.38 95.574 126.542 95.772 126.764 L95.82 125.72 94.68 125.492 Z" fill="#527c3d" fill-opacity="1" stroke="none"/>
   </g>
   <g id="group-18">
    <path id="Path-15" d="M124.554 114.002 C124.554 114.002 124.494 113.168 124.752 112.682 125.058 112.1 125.388 111.836 125.604 111.674 L124.884 111.776 124.05 112.472 Z" fill="#527c3d" fill-opacity="1" stroke="none"/>
   </g>
  </g>
 </g>
</svg>
